<?xml version="1.0" encoding="utf-8"?>
<!-- Generator: Adobe Illustrator 16.0.0, SVG Export Plug-In . SVG Version: 6.00 Build 0)  -->
<!DOCTYPE svg PUBLIC "-//W3C//DTD SVG 1.1//EN" "http://www.w3.org/Graphics/SVG/1.1/DTD/svg11.dtd">
<svg version="1.1" id="Layer_1" xmlns="http://www.w3.org/2000/svg" xmlns:xlink="http://www.w3.org/1999/xlink" x="0px" y="0px"
	 width="512px" height="512px" viewBox="0 0 512 512" enable-background="new 0 0 512 512" xml:space="preserve">
<g>
	<path fill="#E5B5BA" d="M279.325,374.604c-0.4-0.6,0.088-1.056,0.3-1.511c8.916-19.127,6.342-37.244-4.613-54.727
		c-3.434-5.479-8.246-9.559-12.85-13.91c-10.059-9.509-19.092-19.875-25.724-32.131c-3.774-6.974-6.494-14.298-6.835-22.336
		c-0.388-9.146,2.696-17.011,8.994-23.551c9.523-9.889,18.945-19.857,26.948-31.058c3.725-5.212,7.214-10.576,9.232-16.729
		c0.431-1.313,0.604-2.711,0.935-4.238c4.144,2.374,6.571,5.973,7.879,10.362c1.991,6.686,0.987,13.282-0.899,19.803
		c-2.373,8.193-6.051,15.831-10.686,22.931c-4.925,7.547-5.531,15.421-2.977,23.775c2.089,6.829,5.578,12.921,10.179,18.897
		c0-1.233,0.022-2.099-0.003-2.959c-0.375-11.981,1.117-23.614,6.734-34.401c5.088-9.767,12.929-16.279,23.826-19.564
		c-1.113,3.197-1.947,6.206-2.348,9.318c-1.377,10.738,0.568,20.985,4.561,30.927c2.115,5.271,4.803,10.242,7.864,15.021
		c5.335,8.33,8.535,17.362,8.615,27.33c0.071,8.938-2.293,17.341-6.084,25.365c-5.843,12.364-14.146,23.014-23.188,33.142
		c-6.301,7.056-13.027,13.689-19.885,20.198L279.325,374.604z"/>
	<path fill="#E5B5BA" d="M240.39,366.075c-5.34-2.715-10.157-6.214-14.75-10.021c-11.754-9.74-20.215-21.664-23.827-36.685
		c-3.29-13.681-2.067-27.199,1.792-40.571c2.556-8.857,6.209-17.261,10.866-25.221c0.289-0.494,0.423-1.152,1.074-1.38l-0.034-0.035
		c-0.363,3.189-0.952,6.341-0.568,9.603c0.893,7.598,3.775,14.447,7.65,20.924c6.22,10.395,14.292,19.248,23.109,27.467
		c10.806,10.067,18.825,21.813,21.933,36.501c2.072,9.79,1.682,19.484-1.248,29.064c-0.143,0.466-0.316,0.919-0.492,1.371
		c-0.066,0.168-0.184,0.314-0.353,0.599c-4.549-3.427-8.53-7.408-12.267-11.635c-10.911-12.339-19.72-26.136-27.821-40.412
		c-1.921-3.386-3.701-6.853-5.563-10.271c-0.187-0.345-0.221-0.837-0.864-0.994c-0.959,3.643-0.435,7.227,0.381,10.761
		c2.263,9.798,6.986,18.513,12.099,27.041c2.82,4.705,5.959,9.2,9.132,13.67C240.551,365.92,240.468,365.994,240.39,366.075z"/>
	<path fill="#E5B5BA" d="M255.278,120.757c6.464,7.852,10.639,16.731,12.236,26.754c2.459,15.444-2.162,29.01-11.236,41.312
		c-7.028,9.528-15.89,17.132-25.532,23.886c-0.593,0.415-1.015,0.817-1.456-0.253c-4.302-10.464-6.547-21.181-3.882-32.454
		c1.597-6.753,5.242-12.275,10.659-16.594c10.817-8.625,17.083-19.801,18.852-33.5C255.309,126.892,255.363,123.85,255.278,120.757z
		"/>
</g>
<g>
	<g>
		<path fill="#ABABD8" d="M191.689,40.979c1.053-0.657,1.502-0.664,2.14,0.49c1.768,3.198,3.703,6.303,5.525,9.471
			c0.462,0.804,0.856,1.046,1.832,0.69c10.827-3.957,21.911-6.971,33.299-8.813c1.12-0.182,1.245-0.836,1.305-1.752
			c0.504-7.72,1.042-15.438,1.56-23.158c0.374-5.565,0.76-8.968,1.075-14.537c0.059-1.034,0.427-1.268,1.401-1.265
			c11.229,0.032,22.459,0.053,33.688-0.02c1.43-0.01,1.52,0.707,1.608,1.706c0.489,5.496,0.989,8.83,1.483,14.326
			c0.629,6.99,1.276,13.978,1.858,20.972c0.084,1.012,0.466,1.268,1.421,1.335c13.256,0.935,26.313,3.036,39.096,6.717
			c1.15,0.331,1.465-0.342,1.893-1.08c5.225-9.024,10.843-19.469,16.013-28.524c0.732-1.283,1.413-1.506,2.821-1.154
			c10.076,2.513,19.498,7.311,29.066,11.327c1.361,0.571,1.813,1.097,1.362,2.697c-3.055,10.836-5.954,21.717-8.965,32.565
			c-0.296,1.066-0.17,1.58,0.821,2.137c11.119,6.257,21.447,13.641,31.061,22.023c0.937,0.816,1.447,0.754,2.358-0.017
			c8.927-7.567,17.912-15.063,26.837-22.633c0.979-0.831,1.482-0.886,2.455,0.045c7.903,7.573,16.299,14.22,22.905,22.952
			c0.782,1.034,0.813,1.651-0.052,2.686c-6.425,7.692-13.879,16.869-20.191,24.652c-0.919,1.132-1.423,1.288-2.633,0.341
			c-23.723-18.562-50.33-31.048-79.871-36.869c-42.422-8.36-83.346-3.439-122.261,15.594
			c-38.309,18.737-67.204,47.304-86.826,85.167c-10.868,20.973-17.385,43.277-19.915,66.766c-1.018,9.45-1.218,18.913-0.957,28.398
			c0.01,0.356,0.001,0.716,0.001,1.072c-2.904-6.302-5.083-12.804-6.92-19.424c-4.073-14.682-6.429-29.623-6.883-44.863
			c-1.341-45.072,13.081-91.145,38.21-121.975C164.439,58.197,191.689,40.979,191.689,40.979z"/>
		<path fill="#ABABD8" d="M150.814,52.51c-2.066-7.979-4.021-15.565-6.003-23.143c-0.224-0.855,0.014-1.292,0.83-1.631
			c10.107-4.2,20.211-8.409,30.291-12.674c0.955-0.403,1.235-0.023,1.629,0.662c1.461,2.544,2.907,5.099,4.469,7.582
			c0.582,0.925,0.274,1.286-0.47,1.815c-9.257,6.589-17.812,14.001-25.754,22.124C154.188,48.9,152.618,50.605,150.814,52.51z"/>
	</g>
	<g>
		<path fill="#ABABD8" d="M324.48,475.19c-1.054,0.657-1.502,0.663-2.141-0.49c-1.767-3.197-3.703-6.303-5.523-9.472
			c-0.463-0.805-0.857-1.046-1.832-0.689c-10.828,3.958-21.911,6.972-33.299,8.813c-1.121,0.183-1.246,0.838-1.306,1.753
			c-0.505,7.72-1.043,15.438-1.562,23.156c-0.373,5.565-0.76,8.97-1.073,14.536c-0.06,1.035-0.429,1.27-1.402,1.267
			c-11.229-0.031-22.458-0.054-33.687,0.021c-1.429,0.009-1.519-0.706-1.608-1.706c-0.491-5.496-0.991-8.829-1.484-14.326
			c-0.629-6.989-1.277-13.979-1.859-20.973c-0.084-1.012-0.466-1.267-1.421-1.335c-13.254-0.934-26.313-3.035-39.095-6.715
			c-1.15-0.332-1.464,0.341-1.892,1.079c-5.224,9.022-10.843,19.469-16.013,28.523c-0.732,1.283-1.414,1.505-2.821,1.154
			c-10.076-2.513-19.498-7.312-29.068-11.327c-1.361-0.571-1.813-1.097-1.362-2.696c3.054-10.837,5.954-21.717,8.965-32.564
			c0.295-1.066,0.168-1.58-0.822-2.139c-11.119-6.257-21.448-13.641-31.06-22.022c-0.936-0.815-1.448-0.755-2.358,0.017
			c-8.927,7.566-17.913,15.063-26.836,22.634c-0.979,0.83-1.484,0.888-2.457-0.045c-7.903-7.572-16.298-14.221-22.905-22.952
			c-0.782-1.033-0.812-1.651,0.051-2.688c6.425-7.691,13.878-16.868,20.192-24.651c0.918-1.132,1.423-1.286,2.633-0.34
			c23.722,18.562,50.331,31.047,79.871,36.868c42.422,8.359,83.344,3.439,122.259-15.595c38.311-18.736,67.205-47.303,86.828-85.166
			c10.867-20.974,17.384-43.277,19.914-66.769c1.019-9.449,1.218-18.913,0.956-28.397c-0.01-0.357-0.001-0.715-0.001-1.072
			c2.903,6.302,5.083,12.805,6.921,19.425c4.072,14.682,6.431,29.621,6.884,44.862c1.342,45.072-13.081,91.146-38.211,121.975
			C351.73,457.974,324.48,475.19,324.48,475.19z"/>
		<path fill="#ABABD8" d="M365.355,463.66c2.065,7.979,4.021,15.564,6.002,23.143c0.225,0.855-0.012,1.293-0.828,1.631
			c-10.107,4.2-20.213,8.409-30.293,12.676c-0.952,0.403-1.233,0.022-1.627-0.662c-1.463-2.544-2.907-5.101-4.469-7.582
			c-0.582-0.925-0.273-1.286,0.469-1.815c9.258-6.589,17.813-14.001,25.755-22.123C361.982,467.271,363.553,465.564,365.355,463.66z
			"/>
	</g>
</g>
<g>
	<g>
		<path fill="#FFFFFF" d="M40.979,324.481c-0.657-1.055-0.663-1.504,0.49-2.142c3.199-1.767,6.303-3.704,9.472-5.523
			c0.804-0.463,1.046-0.857,0.689-1.833c-3.957-10.827-6.971-21.91-8.813-33.3c-0.181-1.119-0.836-1.244-1.752-1.304
			c-7.72-0.505-15.438-1.043-23.158-1.562c-5.565-0.373-8.968-0.76-14.537-1.073c-1.034-0.06-1.268-0.429-1.265-1.402
			c0.032-11.229,0.052-22.458-0.02-33.687c-0.01-1.429,0.707-1.519,1.706-1.608c5.496-0.491,8.83-0.991,14.326-1.485
			c6.99-0.629,13.978-1.276,20.972-1.858c1.012-0.084,1.268-0.466,1.335-1.421c0.934-13.254,3.036-26.313,6.716-39.095
			c0.331-1.15-0.342-1.464-1.08-1.892c-9.024-5.224-19.469-10.843-28.525-16.013c-1.283-0.732-1.505-1.414-1.154-2.822
			c2.513-10.076,7.311-19.497,11.327-29.067c0.571-1.361,1.097-1.813,2.697-1.362c10.837,3.054,21.717,5.954,32.566,8.965
			c1.066,0.296,1.58,0.169,2.137-0.822c6.257-11.119,13.641-21.448,22.023-31.06c0.816-0.936,0.754-1.448-0.017-2.358
			c-7.566-8.927-15.063-17.913-22.633-26.836c-0.831-0.979-0.886-1.484,0.045-2.457c7.573-7.903,14.22-16.298,22.952-22.905
			c1.034-0.782,1.651-0.812,2.686,0.051c7.692,6.425,16.869,13.878,24.652,20.192c1.131,0.917,1.288,1.423,0.341,2.633
			c-18.561,23.722-31.048,50.331-36.869,79.871c-8.36,42.422-3.439,83.344,15.594,122.259
			c18.737,38.311,47.304,67.205,85.167,86.826c20.973,10.868,43.277,17.386,66.767,19.915c9.449,1.019,18.913,1.219,28.398,0.957
			c0.356-0.01,0.716-0.001,1.072-0.001c-6.302,2.903-12.806,5.083-19.424,6.921c-14.682,4.072-29.623,6.43-44.863,6.884
			c-45.072,1.341-91.145-13.081-121.974-38.211C58.197,351.731,40.979,324.481,40.979,324.481z"/>
		<path fill="#FFFFFF" d="M52.51,365.356c-7.98,2.064-15.565,4.021-23.143,6.002c-0.855,0.224-1.292-0.015-1.631-0.829
			c-4.2-10.107-8.409-20.212-12.674-30.292c-0.403-0.954-0.023-1.234,0.662-1.628c2.544-1.462,5.099-2.907,7.582-4.47
			c0.925-0.583,1.286-0.272,1.815,0.471c6.589,9.257,14.001,17.812,22.124,25.753C48.9,361.983,50.605,363.553,52.51,365.356z"/>
	</g>
	<g>
		<path fill="#FFFFFF" d="M475.19,191.689c0.658,1.053,0.665,1.502-0.489,2.141c-3.198,1.767-6.303,3.703-9.473,5.524
			c-0.805,0.463-1.047,0.857-0.688,1.833c3.956,10.827,6.97,21.911,8.813,33.299c0.183,1.12,0.838,1.245,1.753,1.305
			c7.721,0.504,15.438,1.042,23.156,1.56c5.565,0.374,8.97,0.76,14.536,1.075c1.035,0.059,1.27,0.428,1.267,1.401
			c-0.031,11.229-0.054,22.459,0.021,33.688c0.009,1.428-0.705,1.519-1.706,1.607c-5.496,0.49-8.829,0.99-14.326,1.484
			c-6.989,0.629-13.978,1.275-20.973,1.857c-1.012,0.084-1.267,0.467-1.335,1.421c-0.934,13.255-3.034,26.313-6.715,39.097
			c-0.332,1.149,0.341,1.464,1.08,1.892c9.021,5.224,19.469,10.843,28.522,16.013c1.283,0.732,1.506,1.412,1.154,2.821
			c-2.513,10.076-7.312,19.498-11.327,29.067c-0.57,1.36-1.097,1.813-2.695,1.36c-10.838-3.054-21.719-5.953-32.565-8.964
			c-1.066-0.297-1.58-0.17-2.138,0.821c-6.258,11.119-13.642,21.448-22.022,31.061c-0.815,0.936-0.755,1.447,0.016,2.357
			c7.567,8.927,15.063,17.913,22.634,26.837c0.83,0.979,0.887,1.483-0.045,2.456c-7.572,7.903-14.22,16.298-22.952,22.905
			c-1.033,0.782-1.65,0.812-2.687-0.052c-7.691-6.426-16.869-13.879-24.652-20.191c-1.131-0.919-1.286-1.423-0.34-2.634
			c18.562-23.723,31.047-50.329,36.868-79.87c8.359-42.423,3.439-83.345-15.595-122.261c-18.736-38.309-47.303-67.204-85.166-86.827
			c-20.975-10.868-43.277-17.384-66.768-19.915c-9.449-1.017-18.914-1.217-28.398-0.956c-0.357,0.01-0.715,0-1.072,0
			c6.302-2.904,12.804-5.083,19.424-6.92c14.682-4.073,29.623-6.429,44.863-6.883c45.072-1.341,91.146,13.081,121.975,38.21
			C457.974,164.439,475.19,191.689,475.19,191.689z"/>
		<path fill="#FFFFFF" d="M463.66,150.814c7.979-2.066,15.564-4.021,23.143-6.003c0.854-0.224,1.293,0.014,1.631,0.83
			c4.2,10.107,8.409,20.211,12.676,30.291c0.403,0.955,0.022,1.234-0.662,1.628c-2.544,1.461-5.101,2.907-7.581,4.469
			c-0.926,0.582-1.287,0.273-1.815-0.47c-6.59-9.257-14.002-17.812-22.123-25.754C467.271,154.188,465.565,152.618,463.66,150.814z"
			/>
	</g>
</g>
<path fill="#9F1E23" d="M215.546,252.199c0.061-0.184,0.122-0.367,0.182-0.55c0.032,0.045,0.089,0.089,0.09,0.135
	c0.007,0.208,0.041,0.452-0.306,0.38L215.546,252.199z"/>
<path fill="#9F1E23" d="M240.64,365.852c0.04,0.143,0.147,0.384,0.109,0.408c-0.179,0.12-0.302,0.007-0.359-0.185
	C240.468,365.994,240.551,365.92,240.64,365.852z"/>
<path fill="#9F1E23" d="M279.303,374.561c-0.105,0.026-0.212,0.053-0.318,0.077c0.082-0.276,0.201-0.223,0.341-0.038
	C279.325,374.604,279.303,374.561,279.303,374.561z"/>
<path fill="#FFFFFF" d="M269.18,472.355l-10.298-7.494l-10.297,7.494l3.944-12.109l-10.308-7.479l12.735,0.011l3.926-12.115
	l3.929,12.115l12.733-0.011l-10.31,7.479L269.18,472.355z M334.348,450.021l-10.297-7.492l-10.298,7.492l3.944-12.108l-10.309-7.479
	l12.734,0.011l3.927-12.115l3.927,12.115l12.734-0.011l-10.309,7.479L334.348,450.021z M380.844,408.651l-10.297-7.492
	l-10.298,7.492l3.944-12.108l-10.31-7.479l12.735,0.01l3.927-12.115l3.927,12.115l12.733-0.01l-10.308,7.479L380.844,408.651z"/>
<g id="Layer_2" display="none">
</g>
</svg>
