<?xml version="1.0" encoding="utf-8"?>
<!-- Generator: Adobe Illustrator 16.0.0, SVG Export Plug-In . SVG Version: 6.00 Build 0)  -->
<!DOCTYPE svg PUBLIC "-//W3C//DTD SVG 1.1//EN" "http://www.w3.org/Graphics/SVG/1.1/DTD/svg11.dtd">
<svg version="1.1" id="Layer_1" xmlns="http://www.w3.org/2000/svg" xmlns:xlink="http://www.w3.org/1999/xlink" x="0px" y="0px"
	 width="1749px" height="1830px" viewBox="0 0 1749 1830" enable-background="new 0 0 1749 1830" xml:space="preserve">
<path fill-rule="evenodd" clip-rule="evenodd" fill="#9F1E23" d="M930.258,1184.392c-1.095-1.636,0.239-2.882,0.818-4.123
	c24.354-52.246,17.323-101.729-12.603-149.481c-9.377-14.964-22.521-26.107-35.098-37.996
	c-27.474-25.972-52.147-54.286-70.261-87.761c-10.308-19.049-17.737-39.053-18.67-61.013c-1.061-24.98,7.366-46.464,24.567-64.326
	c26.011-27.012,51.747-54.24,73.605-84.831c10.173-14.237,19.703-28.888,25.217-45.695c1.177-3.588,1.653-7.407,2.552-11.577
	c11.318,6.486,17.951,16.315,21.521,28.304c5.438,18.262,2.697,36.277-2.46,54.09c-6.479,22.378-16.527,43.24-29.183,62.634
	c-13.452,20.614-15.109,42.121-8.129,64.941c5.706,18.652,15.235,35.291,27.802,51.616c0-3.368,0.064-5.728-0.01-8.083
	c-1.023-32.724,3.052-64.497,18.398-93.96c13.895-26.677,35.309-44.465,65.08-53.44c-3.045,8.734-5.322,16.953-6.413,25.453
	c-3.763,29.331,1.552,57.321,12.454,84.474c5.779,14.393,13.121,27.975,21.482,41.031c14.572,22.749,23.313,47.425,23.531,74.646
	c0.196,24.414-6.262,47.365-16.617,69.287c-15.954,33.77-38.636,62.857-63.336,90.52c-17.209,19.272-35.586,37.396-54.313,55.175
	L930.258,1184.392z"/>
<path fill-rule="evenodd" clip-rule="evenodd" fill="#262258" d="M872.264,1661.169c-129.991,0-259.982-0.036-389.973,0.131
	c-5.163,0.007-6.311-1.34-6.184-6.295c0.358-13.989,0.205-27.995,0.064-41.993c-0.031-3.129,0.644-4.793,4.103-4.201
	c0.81,0.139,1.663,0.021,2.497,0.021c259.648,0,519.296,0,778.945,0.001c6.557,0,6.558,0,6.558,6.66
	c0.001,13.332-0.184,26.668,0.104,39.994c0.096,4.441-0.926,5.81-5.643,5.799c-71.494-0.168-142.989-0.116-214.484-0.116
	C989.589,1661.169,930.926,1661.169,872.264,1661.169z"/>
<path fill-rule="evenodd" clip-rule="evenodd" fill="#262258" d="M872.226,1744.162c171.995,0,343.989,0.029,515.983-0.137
	c5.266-0.006,6.354,1.49,6.152,6.357c-0.385,9.317-0.203,18.663-0.057,27.994c0.043,2.76-0.666,4.077-3.596,3.646
	c-0.98-0.144-1.998-0.022-2.998-0.022c-343.654,0-687.308,0-1030.963,0c-6.54,0-6.54-0.001-6.541-6.62
	c0-8.667,0.215-17.341-0.095-25.996c-0.145-4.054,0.86-5.365,5.133-5.325c23.164,0.216,46.331,0.103,69.497,0.103
	C573.904,1744.162,723.065,1744.162,872.226,1744.162z"/>
<path fill-rule="evenodd" clip-rule="evenodd" fill="#A02025" d="M872.716,1681.828c150.321,0,300.643,0.029,450.964-0.129
	c5.094-0.006,6.365,1.242,6.151,6.225c-0.43,9.981-0.223,19.995-0.067,29.992c0.044,2.812-0.753,4.023-3.621,3.645
	c-0.982-0.13-1.997-0.021-2.997-0.021c-300.643,0-601.286,0.001-901.93,0c-6.522,0-6.523-0.001-6.523-6.658
	c0-9.832,0.1-19.667-0.062-29.497c-0.046-2.83,0.791-3.957,3.623-3.582c1.146,0.152,2.33,0.025,3.497,0.025
	C572.072,1681.828,722.394,1681.828,872.716,1681.828z"/>
<path fill-rule="evenodd" clip-rule="evenodd" fill="#9F1E23" d="M872.363,1831c-192.161,0-384.322-0.025-576.483,0.131
	c-5.12,0.004-6.563-1.268-6.1-6.225s0.209-9.994,0.056-14.988c-0.072-2.369,0.647-3.393,3.08-3.105
	c1.15,0.135,2.331,0.021,3.497,0.021c383.822,0,767.644,0,1151.464,0c6.844,0,6.844,0,6.844,6.875c0,4.666-0.146,9.34,0.055,13.996
	c0.117,2.699-0.873,3.609-3.434,3.316c-1.15-0.131-2.33-0.021-3.496-0.021C1256.018,1831,1064.189,1831,872.363,1831z"/>
<path fill-rule="evenodd" clip-rule="evenodd" fill="#9F1E23" d="M823.91,1161.098c-14.588-7.416-27.745-16.975-40.288-27.369
	c-32.106-26.608-55.215-59.172-65.082-100.201c-8.986-37.367-5.646-74.294,4.894-110.816c6.982-24.197,16.961-47.148,29.682-68.889
	c0.789-1.349,1.154-3.146,2.933-3.77l-0.094-0.097c-0.99,8.711-2.601,17.321-1.554,26.227c2.44,20.752,10.312,39.464,20.896,57.152
	c16.989,28.392,39.04,52.577,63.123,75.021c29.514,27.506,51.422,59.585,59.908,99.703c5.657,26.74,4.589,53.222-3.412,79.389
	c-0.388,1.268-0.863,2.51-1.346,3.745c-0.179,0.457-0.498,0.858-0.961,1.633c-12.425-9.357-23.299-20.234-33.504-31.775
	c-29.802-33.705-53.864-71.39-75.991-110.384c-5.248-9.249-10.107-18.717-15.193-28.058c-0.512-0.939-0.605-2.284-2.363-2.714
	c-2.618,9.948-1.188,19.736,1.042,29.391c6.182,26.761,19.083,50.563,33.048,73.862c7.703,12.852,16.275,25.127,24.942,37.338
	C824.349,1160.673,824.122,1160.876,823.91,1161.098z"/>
<path fill-rule="evenodd" clip-rule="evenodd" fill="#9F1E23" d="M864.575,491.03c17.658,21.448,29.06,45.701,33.42,73.076
	c6.719,42.183-5.905,79.24-30.688,112.837c-19.198,26.025-43.403,46.796-69.741,65.243c-1.619,1.134-2.771,2.234-3.974-0.69
	c-11.75-28.583-17.884-57.854-10.604-88.646c4.361-18.445,14.319-33.529,29.115-45.326c29.545-23.558,46.66-54.086,51.491-91.501
	C864.658,507.788,864.808,499.479,864.575,491.03z"/>
<g>
	<g>
		<path fill-rule="evenodd" clip-rule="evenodd" fill="#262258" d="M690.887,273.124c2.876-1.796,4.105-1.813,5.847,1.338
			c4.827,8.736,10.113,17.217,15.09,25.871c1.262,2.197,2.34,2.857,5.003,1.884c29.574-10.809,59.849-19.042,90.953-24.075
			c3.061-0.495,3.401-2.284,3.564-4.786c1.376-21.086,2.846-42.167,4.262-63.253c1.021-15.201,2.075-24.496,2.934-39.706
			c0.161-2.825,1.167-3.462,3.827-3.456c30.672,0.086,61.345,0.144,92.016-0.055c3.905-0.026,4.148,1.93,4.394,4.661
			c1.34,15.013,2.704,24.118,4.056,39.13c1.716,19.092,3.485,38.18,5.074,57.284c0.231,2.764,1.273,3.463,3.882,3.646
			c36.204,2.552,71.872,8.292,106.785,18.346c3.144,0.904,3.999-0.933,5.167-2.95c14.27-24.649,29.616-53.179,43.738-77.913
			c2.001-3.504,3.859-4.112,7.706-3.153c27.522,6.863,53.257,19.97,79.395,30.939c3.72,1.56,4.952,2.997,3.722,7.366
			c-8.343,29.6-16.262,59.318-24.487,88.952c-0.808,2.912-0.461,4.314,2.245,5.836c30.371,17.09,58.584,37.26,84.837,60.155
			c2.556,2.23,3.956,2.061,6.442-0.045c24.383-20.667,48.928-41.142,73.302-61.82c2.675-2.271,4.054-2.421,6.709,0.122
			c21.587,20.686,44.518,38.84,62.563,62.692c2.137,2.823,2.218,4.51-0.141,7.336c-17.548,21.011-37.906,46.077-55.153,67.336
			c-2.509,3.091-3.886,3.518-7.191,0.932c-64.796-50.698-137.473-84.805-218.16-100.705
			c-115.873-22.834-227.647-9.394-333.944,42.594c-104.64,51.179-183.564,129.206-237.16,232.628
			c-29.686,57.286-47.485,118.208-54.396,182.367c-2.781,25.811-3.327,51.658-2.613,77.566c0.027,0.977,0.003,1.954,0.003,2.931
			c-7.932-17.214-13.887-34.975-18.903-53.056c-11.125-40.101-17.562-80.912-18.801-122.541
			c-3.664-123.111,35.729-248.956,104.366-333.164C616.457,320.151,690.887,273.124,690.887,273.124z"/>
		<path fill-rule="evenodd" clip-rule="evenodd" fill="#262258" d="M579.241,304.619c-5.644-21.797-10.984-42.514-16.397-63.212
			c-0.611-2.335,0.037-3.529,2.266-4.456c27.608-11.471,55.206-22.968,82.738-34.618c2.608-1.103,3.373-0.064,4.448,1.808
			c3.992,6.949,7.941,13.928,12.207,20.707c1.59,2.528,0.749,3.514-1.281,4.959c-25.286,17.998-48.651,38.245-70.345,60.428
			C588.453,294.759,584.166,299.416,579.241,304.619z"/>
	</g>
	<g>
		<path fill-rule="evenodd" clip-rule="evenodd" fill="#B8B0AB" d="M279.235,1047.486c-1.796-2.877-1.813-4.106,1.338-5.848
			c8.736-4.825,17.217-10.115,25.871-15.09c2.197-1.262,2.857-2.34,1.884-5.004c-10.809-29.574-19.042-59.848-24.074-90.953
			c-0.495-3.061-2.284-3.401-4.786-3.563c-21.086-1.377-42.167-2.847-63.253-4.263c-15.201-1.021-24.496-2.075-39.706-2.934
			c-2.825-0.16-3.462-1.167-3.456-3.828c0.086-30.671,0.144-61.344-0.055-92.015c-0.026-3.905,1.93-4.148,4.661-4.393
			c15.013-1.341,24.118-2.705,39.13-4.056c19.092-1.717,38.18-3.486,57.284-5.076c2.764-0.23,3.463-1.273,3.646-3.881
			c2.552-36.203,8.292-71.874,18.346-106.786c0.904-3.143-0.933-3.999-2.95-5.167c-24.649-14.269-53.179-29.617-77.913-43.737
			c-3.504-2.001-4.112-3.861-3.153-7.708c6.863-27.522,19.97-53.255,30.939-79.395c1.56-3.718,2.997-4.951,7.366-3.721
			c29.6,8.342,59.318,16.262,88.952,24.488c2.912,0.807,4.314,0.46,5.836-2.245c17.09-30.372,37.259-58.585,60.155-84.838
			c2.23-2.556,2.061-3.955-0.045-6.441c-20.667-24.383-41.141-48.929-61.82-73.303c-2.271-2.674-2.421-4.054,0.122-6.709
			c20.686-21.586,38.84-44.518,62.692-62.563c2.824-2.136,4.51-2.218,7.336,0.141c21.011,17.547,46.077,37.906,67.336,55.153
			c3.091,2.507,3.518,3.886,0.932,7.191c-50.699,64.795-84.806,137.473-100.706,218.161
			c-22.834,115.872-9.394,227.646,42.594,333.943c51.179,104.639,129.206,183.564,232.628,237.16
			c57.286,29.687,118.208,47.483,182.367,54.396c25.811,2.779,51.659,3.326,77.567,2.611c0.978-0.025,1.954-0.002,2.93-0.002
			c-17.214,7.931-34.975,13.886-53.056,18.903c-40.101,11.123-80.912,17.561-122.541,18.801
			c-123.111,3.663-248.956-35.729-333.164-104.368C326.263,1121.916,279.235,1047.486,279.235,1047.486z"/>
		<path fill-rule="evenodd" clip-rule="evenodd" fill="#B8B0AB" d="M310.73,1159.133c-21.797,5.643-42.514,10.983-63.212,16.396
			c-2.335,0.609-3.529-0.037-4.456-2.267c-11.471-27.607-22.968-55.206-34.618-82.738c-1.103-2.606-0.065-3.372,1.808-4.447
			c6.949-3.992,13.928-7.942,20.707-12.207c2.528-1.59,3.514-0.748,4.959,1.282c17.998,25.285,38.245,48.651,60.429,70.345
			C300.871,1149.919,305.527,1154.206,310.73,1159.133z"/>
	</g>
	<g>
		<path fill-rule="evenodd" clip-rule="evenodd" fill="#262258" d="M1053.598,1459.136c-2.878,1.798-4.106,1.814-5.848-1.338
			c-4.825-8.735-10.113-17.217-15.09-25.87c-1.262-2.197-2.34-2.856-5.003-1.884c-29.575,10.81-59.849,19.041-90.955,24.073
			c-3.06,0.496-3.4,2.285-3.563,4.785c-1.377,21.088-2.847,42.169-4.263,63.254c-1.021,15.201-2.074,24.496-2.934,39.706
			c-0.16,2.826-1.168,3.462-3.828,3.456c-30.671-0.087-61.344-0.145-92.015,0.055c-3.904,0.025-4.148-1.928-4.393-4.661
			c-1.341-15.012-2.705-24.116-4.056-39.129c-1.717-19.093-3.486-38.181-5.075-57.285c-0.231-2.765-1.273-3.461-3.881-3.646
			c-36.203-2.552-71.874-8.291-106.786-18.345c-3.142-0.905-3.999,0.933-5.167,2.949c-14.269,24.649-29.617,53.18-43.737,77.913
			c-2.001,3.504-3.861,4.111-7.707,3.152c-27.523-6.863-53.256-19.97-79.396-30.938c-3.718-1.56-4.951-2.997-3.721-7.365
			c8.342-29.601,16.262-59.319,24.487-88.951c0.808-2.912,0.46-4.315-2.245-5.838c-30.372-17.089-58.585-37.259-84.838-60.154
			c-2.556-2.229-3.955-2.062-6.441,0.044c-24.383,20.668-48.929,41.143-73.303,61.821c-2.674,2.27-4.054,2.423-6.709-0.122
			c-21.586-20.686-44.518-38.841-62.563-62.691c-2.136-2.824-2.218-4.511,0.141-7.337c17.547-21.012,37.906-46.076,55.153-67.335
			c2.508-3.092,3.886-3.518,7.191-0.932c64.795,50.698,137.473,84.804,218.161,100.704c115.872,22.834,227.646,9.394,333.943-42.594
			c104.64-51.179,183.565-129.205,237.16-232.626c29.687-57.289,47.484-118.211,54.396-182.37
			c2.78-25.811,3.326-51.659,2.611-77.566c-0.026-0.977-0.003-1.955-0.003-2.93c7.932,17.214,13.887,34.975,18.904,53.056
			c11.123,40.101,17.563,80.911,18.801,122.541c3.664,123.111-35.729,248.956-104.367,333.164
			C1128.027,1412.109,1053.598,1459.136,1053.598,1459.136z"/>
		<path fill-rule="evenodd" clip-rule="evenodd" fill="#262258" d="M1165.243,1427.642c5.644,21.798,10.984,42.515,16.396,63.214
			c0.61,2.334-0.037,3.527-2.268,4.453c-27.606,11.472-55.205,22.969-82.737,34.619c-2.606,1.104-3.372,0.065-4.447-1.809
			c-3.992-6.947-7.942-13.927-12.206-20.707c-1.591-2.527-0.749-3.514,1.28-4.959c25.286-17.998,48.652-38.244,70.346-60.428
			C1156.031,1437.502,1160.317,1432.844,1165.243,1427.642z"/>
	</g>
	<g>
		<path fill-rule="evenodd" clip-rule="evenodd" fill="#B8B0AB" d="M1465.248,684.775c1.797,2.877,1.813,4.105-1.339,5.847
			c-8.735,4.826-17.216,10.114-25.87,15.089c-2.196,1.263-2.857,2.34-1.883,5.004c10.809,29.574,19.04,59.849,24.074,90.954
			c0.494,3.06,2.283,3.4,4.783,3.563c21.09,1.376,42.171,2.846,63.254,4.262c15.201,1.021,24.496,2.075,39.706,2.935
			c2.826,0.161,3.462,1.167,3.456,3.828c-0.087,30.672-0.145,61.344,0.055,92.015c0.025,3.904-1.928,4.148-4.661,4.394
			c-15.012,1.34-24.116,2.704-39.129,4.055c-19.093,1.716-38.18,3.485-57.285,5.074c-2.764,0.231-3.461,1.274-3.646,3.882
			c-2.551,36.204-8.291,71.874-18.345,106.785c-0.905,3.144,0.933,3.999,2.95,5.167c24.647,14.269,53.179,29.616,77.912,43.738
			c3.504,2.001,4.112,3.858,3.152,7.706c-6.863,27.522-19.969,53.257-30.938,79.396c-1.561,3.719-2.998,4.951-7.366,3.721
			c-29.601-8.343-59.319-16.262-88.951-24.487c-2.912-0.808-4.315-0.461-5.838,2.244c-17.089,30.372-37.259,58.585-60.153,84.838
			c-2.229,2.556-2.062,3.955,0.043,6.442c20.668,24.383,41.143,48.928,61.821,73.301c2.27,2.676,2.422,4.055-0.122,6.71
			c-20.687,21.587-38.84,44.518-62.691,62.563c-2.824,2.137-4.51,2.218-7.337-0.141c-21.012-17.549-46.076-37.906-67.335-55.153
			c-3.092-2.509-3.518-3.886-0.932-7.191c50.698-64.796,84.804-137.473,100.705-218.16c22.833-115.873,9.393-227.647-42.595-333.944
			c-51.179-104.64-129.205-183.564-232.628-237.16c-57.287-29.686-118.209-47.485-182.368-54.396
			c-25.81-2.779-51.658-3.327-77.567-2.612c-0.976,0.027-1.954,0.003-2.929,0.003c17.214-7.932,34.974-13.886,53.056-18.904
			c40.101-11.124,80.911-17.561,122.541-18.8c123.111-3.663,248.957,35.729,333.164,104.367
			C1418.221,610.345,1465.248,684.775,1465.248,684.775z"/>
		<path fill-rule="evenodd" clip-rule="evenodd" fill="#B8B0AB" d="M1433.753,573.129c21.799-5.643,42.515-10.983,63.213-16.396
			c2.335-0.61,3.528,0.038,4.454,2.268c11.472,27.607,22.969,55.206,34.619,82.737c1.104,2.607,0.065,3.372-1.809,4.447
			c-6.948,3.992-13.928,7.942-20.707,12.207c-2.527,1.59-3.514,0.749-4.959-1.281c-17.998-25.286-38.244-48.651-60.428-70.345
			C1443.613,582.342,1438.957,578.055,1433.753,573.129z"/>
	</g>
</g>
<path fill-rule="evenodd" clip-rule="evenodd" fill="#9F1E23" d="M756.05,850.052c0.166-0.501,0.332-1.002,0.497-1.503
	c0.085,0.123,0.241,0.244,0.245,0.369c0.018,0.568,0.11,1.233-0.835,1.038L756.05,850.052z"/>
<path fill-rule="evenodd" clip-rule="evenodd" fill="#9F1E23" d="M824.592,1160.486c0.109,0.387,0.402,1.043,0.298,1.113
	c-0.49,0.33-0.826,0.018-0.98-0.502C824.122,1160.876,824.349,1160.673,824.592,1160.486z"/>
<path fill-rule="evenodd" clip-rule="evenodd" fill="#9F1E23" d="M930.195,1184.275c-0.289,0.07-0.579,0.14-0.869,0.209
	c0.22-0.758,0.549-0.611,0.927-0.103C930.258,1184.392,930.195,1184.275,930.195,1184.275z"/>
<path fill-rule="evenodd" clip-rule="evenodd" fill="#FEFEFE" d="M1512.639,1306.214c0.126,0.117,0.231,0.216,0.338,0.314
	c-0.212,0.099-0.416,0.232-0.639,0.276c-0.083,0.017-0.208-0.178-0.314-0.275
	C1512.231,1306.423,1512.439,1306.316,1512.639,1306.214z"/>
<path fill-rule="evenodd" clip-rule="evenodd" fill="#FEFEFE" d="M1670.57,992.415c-0.234-0.327-0.47-0.653-0.705-0.98
	c0.543-0.013,1.084-0.025,1.627-0.037C1671.185,991.736,1670.878,992.076,1670.57,992.415z"/>
<path fill-rule="evenodd" clip-rule="evenodd" fill="#FFFFFF" d="M902.546,1451.391l-28.126-20.467l-28.127,20.467l10.773-33.074
	l-28.156-20.426l34.785,0.025l10.725-33.09l10.725,33.09l34.785-0.025l-28.157,20.426L902.546,1451.391z M1080.546,1390.391
	l-28.126-20.467l-28.127,20.467l10.773-33.074l-28.156-20.426l34.785,0.025l10.725-33.09l10.725,33.09l34.785-0.025l-28.157,20.426
	L1080.546,1390.391z M1207.546,1277.391l-28.126-20.467l-28.127,20.467l10.773-33.074l-28.156-20.426l34.785,0.025l10.725-33.09
	l10.725,33.09l34.785-0.025l-28.157,20.426L1207.546,1277.391z"/>
<circle fill="none" cx="872.241" cy="866.129" r="681.545"/>
<text transform="matrix(-0.8391 -0.544 0.544 -0.8391 520.8105 1491.3789)"><tspan x="0" y="0" font-family="'Gadugi'" font-size="144.0807">C</tspan><tspan x="160.539" y="7.351" font-family="'Gadugi'" font-size="144.0807" rotate="13.574">O</tspan><tspan x="332.637" y="59.356" font-family="'Gadugi'" font-size="144.0807" rotate="26.304">L</tspan><tspan x="454.064" y="127.124" font-family="'Gadugi'" font-size="144.0807" rotate="37.489">L</tspan><tspan x="560.102" y="217.104" font-family="'Gadugi'" font-size="144.0807" rotate="48.895">E</tspan><tspan x="650.052" y="329.937" font-family="'Gadugi'" font-size="144.0807" rotate="61.353">G</tspan><tspan x="723.348" y="483.391" font-family="'Gadugi'" font-size="144.0807" rotate="73.975">E</tspan><tspan x="755.467" y="623.741" font-family="'Gadugi'" font-size="144.0807" rotate="84.237"> </tspan><tspan x="761.241" y="663.289" font-family="'Gadugi'" font-size="144.0807" rotate="90.194">O</tspan><tspan x="759.646" y="772.284" font-family="'Gadugi'" font-size="144.0807" rotate="97.36">F</tspan><tspan x="750.009" y="842.208" font-family="'Gadugi'" font-size="144.0807" rotate="101.748"> </tspan><tspan x="722.824" y="949.542" font-family="'Gadugi'" font-size="144.0807" rotate="112.002">T</tspan><tspan x="661.085" y="1082.655" font-family="'Gadugi'" font-size="144.0807" rotate="123.668">E</tspan><tspan x="575.556" y="1198.815" font-family="'Gadugi'" font-size="144.0807" rotate="135.951">C</tspan><tspan x="454.938" y="1304.893" font-family="'Gadugi'" font-size="144.0807" rotate="149.233">H</tspan><tspan x="301.486" y="1386.446" font-family="'Gadugi'" font-size="144.0807" rotate="163.369">N</tspan><tspan x="127.354" y="1429.053" font-family="'Gadugi'" font-size="144.0807" rotate="177.823">O</tspan><tspan x="-52.427" y="1425.674" font-family="'Gadugi'" font-size="144.0807" rotate="-169.444">L</tspan><tspan x="-188.239" y="1394.601" font-family="'Gadugi'" font-size="144.0807" rotate="-156.729">O</tspan><tspan x="-349.706" y="1314.981" font-family="'Gadugi'" font-size="144.0807" rotate="-142.661">G</tspan><tspan x="-479.199" y="1204.68" font-family="'Gadugi'" font-size="144.0807" rotate="-129.737">Y</tspan><tspan x="-569.335" y="1083.791" font-family="'Gadugi'" font-size="144.0807" rotate="-118.664">-</tspan><tspan x="-612.961" y="1000.34" font-family="'Gadugi'" font-size="144.0807" rotate="-110.086">K</tspan><tspan x="-650.714" y="890.055" font-family="'Gadugi'" font-size="144.0807" rotate="-100.32">A</tspan><tspan x="-670.911" y="765.63" font-family="'Gadugi'" font-size="144.0807" rotate="-89.623">N</tspan><tspan x="-666.482" y="624.824" font-family="'Gadugi'" font-size="144.0807" rotate="-78.673">D</tspan><tspan x="-636.524" y="494.273" font-family="'Gadugi'" font-size="144.0807" rotate="-68.859">Y</tspan></text>
</svg>
